<svg xmlns="http://www.w3.org/2000/svg" xmlns:xlink="http://www.w3.org/1999/xlink" width="52" height="52" viewBox="0 0 52 52">
  <defs>
    <clipPath id="clip-path">
      <rect id="Rectángulo_66" data-name="Rectángulo 66" width="24.094" height="18.928" fill="#2f3394"/>
    </clipPath>
  </defs>
  <g id="email" transform="translate(-1175 -4660.333)">
    <g id="Grupo_597" data-name="Grupo 597" transform="translate(1168.953 4672.072)">
      <g id="Grupo_598" data-name="Grupo 598" transform="translate(20 5)" clip-path="url(#clip-path)">
        <path id="Trazado_146" data-name="Trazado 146" d="M20.616,0H3.478A3.482,3.482,0,0,0,0,3.479v11.97a3.483,3.483,0,0,0,3.478,3.479H20.616a3.483,3.483,0,0,0,3.479-3.479V3.479A3.483,3.483,0,0,0,20.616,0m0,1.663a1.812,1.812,0,0,1,.413.049l-7.23,8.2a2.335,2.335,0,0,1-3.5,0l-7.23-8.2a1.811,1.811,0,0,1,.413-.049Zm1.816,13.786a1.818,1.818,0,0,1-1.816,1.816H3.478a1.818,1.818,0,0,1-1.816-1.816V3.479A1.814,1.814,0,0,1,1.8,2.79l7.249,8.225a4,4,0,0,0,6,0L22.3,2.791a1.8,1.8,0,0,1,.136.688Z" transform="translate(0 0)" fill="#2f3394"/>
      </g>
    </g>
    <g id="Elipse_17" data-name="Elipse 17" transform="translate(1175 4660.333)" fill="none" stroke="#2f3394" stroke-width="2">
      <circle cx="26" cy="26" r="26" stroke="none"/>
      <circle cx="26" cy="26" r="25" fill="none"/>
    </g>
  </g>
</svg>
