<svg width="37" height="38" viewBox="0 0 37 38" fill="none" xmlns="http://www.w3.org/2000/svg">
<path d="M24.3102 12.5127H12.838C12.2206 12.5134 11.6287 12.7658 11.1922 13.2144C10.7557 13.6631 10.5103 14.2713 10.5098 14.9057V23.1392C10.5105 23.7735 10.756 24.3817 11.1924 24.8303C11.6289 25.2789 12.2206 25.5313 12.838 25.5322H24.3102C24.9276 25.5315 25.5196 25.2791 25.9562 24.8305C26.3928 24.3819 26.6384 23.7737 26.6391 23.1392V14.9057C26.6384 14.2713 26.3928 13.663 25.9562 13.2144C25.5196 12.7658 24.9276 12.5134 24.3102 12.5127V12.5127ZM24.3102 13.6566C24.4033 13.6569 24.4961 13.6682 24.5867 13.6903L19.7469 19.3306C19.6002 19.5012 19.4199 19.6379 19.2179 19.7314C19.016 19.825 18.797 19.8734 18.5754 19.8734C18.3539 19.8734 18.1349 19.825 17.9329 19.7314C17.7309 19.6379 17.5506 19.5012 17.404 19.3306L12.5642 13.6903C12.6548 13.6682 12.7475 13.6569 12.8406 13.6566H24.3102ZM25.5258 23.1392C25.5255 23.4704 25.3973 23.7879 25.1694 24.0221C24.9415 24.2563 24.6325 24.388 24.3102 24.3883H12.838C12.5157 24.388 12.2067 24.2563 11.9788 24.0221C11.7509 23.7879 11.6227 23.4704 11.6223 23.1392V14.9057C11.6228 14.7431 11.6541 14.5821 11.7147 14.4318L16.5672 20.0893C16.8185 20.3821 17.1275 20.6165 17.4737 20.7772C17.82 20.9378 18.1955 21.0208 18.5754 21.0208C18.9553 21.0208 19.3309 20.9378 19.6771 20.7772C20.0233 20.6165 20.3324 20.3821 20.5836 20.0893L25.4375 14.4325C25.4977 14.5826 25.5287 14.7434 25.5285 14.9057L25.5258 23.1392Z" fill="#2F3394"/>
<path d="M18.574 36.0786C27.8165 36.0786 35.3091 28.3799 35.3091 18.8831C35.3091 9.38621 27.8165 1.6875 18.574 1.6875C9.33143 1.6875 1.83887 9.38621 1.83887 18.8831C1.83887 28.3799 9.33143 36.0786 18.574 36.0786Z" stroke="#2F3394" stroke-width="2"/>
</svg>
