<svg width="37" height="38" viewBox="0 0 37 38" fill="none" xmlns="http://www.w3.org/2000/svg">
<path d="M18.4041 36.0786C27.6466 36.0786 35.1392 28.3799 35.1392 18.8831C35.1392 9.38621 27.6466 1.6875 18.4041 1.6875C9.16151 1.6875 1.66895 9.38621 1.66895 18.8831C1.66895 28.3799 9.16151 36.0786 18.4041 36.0786Z" stroke="white" stroke-width="2"/>
<path d="M21.8045 19.9201L22.253 16.9164H19.4475V14.9665C19.4279 14.7421 19.4577 14.5161 19.5347 14.3052C19.6116 14.0943 19.7337 13.9038 19.892 13.748C20.0502 13.5921 20.2406 13.4748 20.4489 13.4047C20.6573 13.3347 20.8783 13.3137 21.0956 13.3432H22.3715V10.7894C21.6227 10.6639 20.8661 10.5949 20.1075 10.583C17.7968 10.583 16.2873 12.0219 16.2873 14.626V16.9164H13.7188V19.9201H16.2873V27.1821H19.4475V19.9201H21.8045Z" fill="white"/>
</svg>
