<svg width="36" height="38" viewBox="0 0 36 38" fill="none" xmlns="http://www.w3.org/2000/svg">
<path d="M17.989 36.0786C27.2316 36.0786 34.7241 28.3799 34.7241 18.8831C34.7241 9.38621 27.2316 1.6875 17.989 1.6875C8.74647 1.6875 1.25391 9.38621 1.25391 18.8831C1.25391 28.3799 8.74647 36.0786 17.989 36.0786Z" stroke="#2F3394" stroke-width="2"/>
<path d="M18.0564 14.7949C17.2696 14.7949 16.5005 15.0346 15.8463 15.4838C15.192 15.9329 14.6821 16.5713 14.381 17.3181C14.0799 18.065 14.0011 18.8869 14.1545 19.6798C14.308 20.4727 14.6868 21.201 15.2431 21.7727C15.7994 22.3444 16.5082 22.7338 17.2799 22.8916C18.0515 23.0494 18.8514 22.9685 19.5784 22.6593C20.3053 22.35 20.9267 21.8262 21.3639 21.154C21.8011 20.4819 22.0345 19.6917 22.0347 18.8833C22.0336 17.7994 21.6141 16.7603 20.8683 15.9938C20.1225 15.2274 19.1112 14.7962 18.0564 14.7949V14.7949ZM18.0564 21.5017C17.5524 21.5017 17.0597 21.3482 16.6406 21.0604C16.2215 20.7727 15.8948 20.3638 15.702 19.8853C15.5091 19.4068 15.4586 18.8804 15.5569 18.3724C15.6553 17.8645 15.898 17.3979 16.2544 17.0317C16.6108 16.6655 17.0649 16.4161 17.5592 16.3151C18.0536 16.214 18.566 16.2659 19.0316 16.4641C19.4973 16.6623 19.8953 16.9979 20.1753 17.4285C20.4554 17.8591 20.6048 18.3654 20.6048 18.8833C20.6039 19.5774 20.3352 20.2429 19.8574 20.7338C19.3797 21.2247 18.732 21.5008 18.0564 21.5017Z" fill="#2F3394"/>
<path d="M21.2137 27.1826H14.764C13.4776 27.1808 12.2444 26.6549 11.3349 25.7202C10.4254 24.7855 9.9137 23.5184 9.91211 22.1967V15.5689C9.91353 14.2472 10.4251 12.9799 11.3347 12.0452C12.2443 11.1105 13.4775 10.5846 14.764 10.583H21.2137C22.5002 10.5845 23.7336 11.1102 24.6433 12.045C25.5531 12.9797 26.0648 14.247 26.0662 15.5689V22.196C26.0646 23.5178 25.5528 24.7851 24.6431 25.7198C23.7335 26.6545 22.5001 27.1803 21.2137 27.1819V27.1826ZM14.764 12.145C13.8805 12.1461 13.0335 12.5072 12.4088 13.1491C11.7841 13.7909 11.4327 14.6612 11.4317 15.5689V22.196C11.4325 23.104 11.784 23.9745 12.4088 24.6166C13.0337 25.2586 13.8809 25.6197 14.7646 25.6206H21.2143C22.098 25.6197 22.9453 25.2586 23.5701 24.6166C24.195 23.9745 24.5464 23.104 24.5473 22.196V15.5689C24.5464 14.661 24.195 13.7904 23.5701 13.1484C22.9453 12.5063 22.098 12.1452 21.2143 12.1443L14.764 12.145Z" fill="#2F3394"/>
</svg>
