<svg xmlns="http://www.w3.org/2000/svg" viewBox="0 0 52 52"><defs><style>.cls-1,.cls-2{fill:none;}.cls-2{stroke:#2f3394;stroke-width:2px;}.cls-3{fill:#2f3394;}</style></defs><g id="Layer_2" data-name="Layer 2"><g id="Layer_1-2" data-name="Layer 1"><g id="instagram"><g id="Elipse_2" data-name="Elipse 2"><circle class="cls-1" cx="26" cy="26" r="26"/><circle class="cls-2" cx="26" cy="26" r="25"/></g><g id="Grupo_6" data-name="Grupo 6"><g id="Grupo_5" data-name="Grupo 5"><path id="Trazado_37" data-name="Trazado 37" class="cls-3" d="M32.39,18.24a1.42,1.42,0,1,0,1.42,1.42h0a1.43,1.43,0,0,0-1.42-1.42"/><path id="Trazado_38" data-name="Trazado 38" class="cls-3" d="M26.1,20.06A5.94,5.94,0,1,0,32,26a5.94,5.94,0,0,0-5.94-5.94m0,9.75A3.81,3.81,0,1,1,29.91,26a3.82,3.82,0,0,1-3.81,3.81"/><path id="Trazado_39" data-name="Trazado 39" class="cls-3" d="M30.82,38.07H21.18a7.27,7.27,0,0,1-7.25-7.25V21.18a7.27,7.27,0,0,1,7.25-7.25h9.64a7.27,7.27,0,0,1,7.25,7.25v9.64a7.27,7.27,0,0,1-7.25,7.25M21.18,16.2a5,5,0,0,0-5,5v9.64a5,5,0,0,0,5,5h9.64a5,5,0,0,0,5-5V21.18a5,5,0,0,0-5-5Z"/></g></g></g></g></g></svg>