<svg xmlns="http://www.w3.org/2000/svg" xmlns:xlink="http://www.w3.org/1999/xlink" width="52" height="52" viewBox="0 0 52 52">
  <defs>
    <clipPath id="clip-path">
      <rect id="Rectángulo_12" data-name="Rectángulo 12" width="24.134" height="24.134" transform="translate(0 0)" fill="#2f3394"/>
    </clipPath>
  </defs>
  <g id="instagram" transform="translate(-1191 -4302)">
    <g id="Elipse_2" data-name="Elipse 2" transform="translate(1191 4302)" fill="none" stroke="#2f3394" stroke-width="2">
      <circle cx="26" cy="26" r="26" stroke="none"/>
      <circle cx="26" cy="26" r="25" fill="none"/>
    </g>
    <g id="Grupo_6" data-name="Grupo 6" transform="translate(1217.697 4313.69)">
      <g id="Grupo_5" data-name="Grupo 5" transform="translate(-12.764 2.243)" clip-path="url(#clip-path)">
        <path id="Trazado_37" data-name="Trazado 37" d="M26.4,6.318a1.415,1.415,0,1,0,1.415,1.415A1.415,1.415,0,0,0,26.4,6.318" transform="translate(-7.943 -2.008)" fill="#2f3394"/>
        <path id="Trazado_38" data-name="Trazado 38" d="M15.066,8.977a5.943,5.943,0,1,0,5.943,5.944,5.95,5.95,0,0,0-5.943-5.944m0,9.751a3.807,3.807,0,1,1,3.807-3.807,3.812,3.812,0,0,1-3.807,3.807" transform="translate(-2.9 -2.854)" fill="#2f3394"/>
        <path id="Trazado_39" data-name="Trazado 39" d="M16.883,24.134H7.248A7.258,7.258,0,0,1,0,16.885V7.249A7.257,7.257,0,0,1,7.248,0h9.635a7.257,7.257,0,0,1,7.249,7.249v9.635a7.258,7.258,0,0,1-7.249,7.249M7.248,2.271A4.984,4.984,0,0,0,2.27,7.249v9.635a4.984,4.984,0,0,0,4.979,4.979h9.635a4.984,4.984,0,0,0,4.979-4.979V7.249a4.984,4.984,0,0,0-4.979-4.979Z" transform="translate(0 0)" fill="#2f3394"/>
      </g>
    </g>
  </g>
</svg>
