<svg width="1080" height="1080" viewBox="0 0 1080 1080" fill="none" xmlns="http://www.w3.org/2000/svg">
<path d="M564.569 534.381C541.285 534.169 520.752 526.337 502.972 511.097C500.22 508.557 497.892 507.922 494.082 509.192C452.594 522.951 408.777 499.031 398.617 457.12C388.457 414.997 415.974 373.933 459.367 366.948C471.221 365.042 483.075 365.889 494.293 370.334C497.68 371.604 499.797 371.181 502.76 368.641C556.525 322.496 637.384 347.05 656.435 414.997C673.157 474.901 626.801 535.016 564.569 534.381ZM484.556 490.353C472.914 465.375 469.528 452.887 471.433 439.975C474.396 439.975 477.571 439.975 480.746 439.975C484.133 439.975 487.308 439.975 490.695 439.975C494.505 489.93 530.701 511.309 559.489 513.425C594.203 515.965 626.166 493.951 636.114 461.142C646.275 427.698 631.457 391.713 600.977 374.779C571.766 358.481 535.358 365.889 518.212 383.458C534.723 398.275 543.613 416.479 543.825 439.128C536.628 439.128 530.278 439.128 523.928 439.128C520.541 397.428 484.345 381.553 458.097 387.903C429.31 395.1 411.318 424.946 419.361 453.522C427.405 482.098 457.462 499.031 484.556 490.353Z" fill="black"/>
<path d="M481.593 684.457C475.243 684.457 469.316 684.457 463.178 684.457C462.966 681.07 462.754 677.895 462.543 673.662C453.652 683.187 443.492 688.056 431.215 686.997C418.938 686.15 408.989 680.647 401.581 670.698C388.457 652.918 390.362 625.824 405.603 610.583C421.266 594.919 440.74 594.919 462.754 611.006C462.754 596.824 462.754 583.277 462.754 569.519C469.528 569.519 475.243 569.519 481.593 569.519C481.593 607.831 481.593 645.933 481.593 684.457ZM463.601 642.969C463.601 628.364 452.382 616.722 438.412 616.722C424.442 616.51 412.588 628.787 412.588 643.392C412.588 657.786 424.23 669.64 437.989 669.852C452.171 669.64 463.601 657.786 463.601 642.969Z" fill="black"/>
<path d="M786.191 675.143C785.979 678.318 785.767 681.07 785.767 684.457C779.629 684.457 773.702 684.457 767.352 684.457C767.352 646.356 767.352 608.255 767.352 569.73C773.278 569.73 779.205 569.73 785.767 569.73C785.767 583.489 785.767 597.248 785.767 612.912C796.562 601.905 808.205 597.036 822.175 599.788C831.912 601.693 839.955 606.35 846.094 613.97C860.064 631.327 859.006 658.633 843.977 674.72C828.525 690.595 809.051 691.019 786.191 675.143ZM785.344 642.546C785.132 657.575 796.351 669.428 810.745 669.428C824.503 669.428 836.145 657.786 836.357 643.392C836.569 628.999 824.927 616.51 810.745 616.51C796.986 616.51 785.555 628.152 785.344 642.546Z" fill="black"/>
<path d="M292.145 649.108C270.978 649.108 249.811 649.108 228.432 649.108C228.855 658.845 235.205 666.465 244.519 669.428C255.526 673.027 264.628 669.64 274.153 657.998C279.022 660.326 284.102 662.655 289.182 665.195C282.62 682.552 258.913 691.654 237.745 684.88C215.308 677.895 203.454 654.399 210.228 630.269C216.366 607.62 237.957 594.919 261.241 599.999C282.197 604.656 295.955 626.247 292.145 649.108ZM272.883 634.29C271.825 622.648 262.723 614.817 251.081 614.817C239.862 614.817 230.125 623.283 228.855 634.29C243.249 634.29 257.854 634.29 272.883 634.29Z" fill="black"/>
<path d="M946.85 648.896C925.471 648.896 904.304 648.896 883.348 648.896C883.348 658.21 889.063 665.618 898.165 669.005C909.384 673.027 918.486 670.063 929.069 658.21C933.938 660.538 939.018 662.866 944.098 665.406C936.478 683.399 912.559 692.077 891.18 684.669C869.801 677.26 858.582 654.188 864.932 630.48C870.648 608.678 891.603 595.766 914.252 599.999C936.055 604.021 949.813 623.919 946.85 648.896ZM927.588 634.291C926.106 622.437 916.792 614.605 904.939 615.028C893.932 615.24 884.406 623.919 883.56 634.291C898.165 634.291 912.771 634.291 927.588 634.291Z" fill="black"/>
<path d="M566.051 684.457C559.489 684.457 554.197 684.457 548.482 684.457C548.27 681.705 548.059 679.165 547.847 677.684C540.862 680.647 534.088 684.88 526.68 686.574C510.592 690.172 496.834 680.647 494.505 665.83C492.812 654.188 498.527 643.392 510.592 639.582C521.388 636.196 532.818 635.137 544.037 633.021C544.884 632.809 545.73 632.809 546.365 632.597C548.059 624.342 545.307 618.838 538.533 616.087C529.008 612.488 521.176 616.087 514.614 627.305C509.111 625.824 503.607 624.554 497.892 623.072C500.644 609.101 513.768 599.153 530.49 598.729C551.445 598.306 567.109 608.043 566.262 632.809C565.627 649.954 566.051 667.1 566.051 684.457ZM546.577 646.779C537.687 648.473 529.008 649.743 520.541 652.071C515.249 653.553 512.921 658.21 514.191 663.501C515.249 668.582 519.059 670.698 523.716 671.122C540.438 672.815 549.964 659.903 546.577 646.779Z" fill="black"/>
<path d="M583.196 601.27C589.546 601.27 595.473 601.27 601.823 601.27C602.035 604.233 602.247 606.985 602.458 608.678C609.232 605.503 616.006 601.058 623.414 599.364C641.406 595.343 657.493 607.196 660.034 625.4C660.457 628.787 660.88 632.174 660.88 635.56C660.88 651.648 660.88 667.735 660.88 684.245C654.318 684.245 647.968 684.245 641.195 684.245C641.195 671.122 641.195 658.421 641.195 645.509C641.195 642.334 641.195 639.159 641.195 635.984C640.56 624.553 634.21 617.568 623.838 617.145C612.619 616.51 603.94 623.283 602.882 634.714C602.035 646.144 602.247 657.575 602.247 669.005C602.247 674.085 602.247 679.165 602.247 684.457C595.685 684.457 589.758 684.457 583.196 684.457C583.196 656.939 583.196 629.422 583.196 601.27Z" fill="black"/>
<path d="M323.473 684.457C316.7 684.457 310.773 684.457 304.634 684.457C304.634 656.728 304.634 629.21 304.634 601.27C310.984 601.27 316.911 601.27 323.262 601.27C323.473 604.445 323.473 607.196 323.685 608.89C330.458 605.715 337.02 601.269 344.217 599.576C363.479 595.131 380.837 608.255 381.683 627.94C382.53 646.567 381.895 664.983 381.895 684.245C375.756 684.245 369.83 684.245 363.056 684.245C363.056 682.129 362.844 680.012 362.844 677.683C362.844 664.56 363.056 651.436 362.844 638.312C362.633 622.648 353.742 614.817 339.56 617.357C330.035 619.05 323.897 627.94 323.685 640.217C323.473 652.706 323.685 665.195 323.685 677.683C323.473 679.8 323.473 681.917 323.473 684.457Z" fill="black"/>
<path d="M730.944 601.481C737.717 601.481 743.644 601.481 749.995 601.481C749.995 620.108 751.265 638.524 749.571 656.728C747.666 677.895 729.674 689.961 707.66 686.997C688.186 684.245 676.544 672.603 675.909 652.918C675.274 635.984 675.697 619.262 675.697 601.693C682.048 601.693 688.186 601.693 695.383 601.693C695.383 606.985 695.383 612.488 695.383 617.78C695.383 628.999 695.171 640.217 695.595 651.436C696.018 662.231 702.791 668.793 712.528 669.005C722.689 669.217 729.462 663.29 730.097 652.283C730.944 638.101 730.521 623.919 730.732 609.948C730.944 607.196 730.944 604.445 730.944 601.481Z" fill="black"/>
<path d="M165.142 617.568C160.485 617.568 156.252 617.568 151.383 617.568C151.383 640.006 151.383 662.02 151.383 684.457C144.609 684.457 138.683 684.457 131.909 684.457C131.909 662.231 131.909 640.217 131.909 617.568C126.829 617.568 122.596 617.568 117.939 617.568C117.939 611.853 117.939 606.985 117.939 601.481C122.384 601.27 126.617 601.058 131.486 600.846C131.486 592.591 131.486 584.759 131.486 576.292C138.048 576.292 144.186 576.292 151.171 576.292C151.171 584.336 151.171 592.379 151.171 601.058C156.463 601.058 160.908 601.058 165.142 601.058C165.142 606.985 165.142 612.065 165.142 617.568Z" fill="black"/>
<path d="M196.046 684.669C189.696 684.669 183.769 684.669 177.419 684.669C177.419 656.94 177.419 629.422 177.419 601.481C183.557 601.481 189.484 601.481 196.046 601.481C196.046 628.999 196.046 656.516 196.046 684.669Z" fill="black"/>
<path d="M174.667 576.292C174.667 569.307 179.747 564.227 186.521 564.227C193.294 564.227 198.586 569.307 198.586 576.08C198.586 582.642 193.083 588.146 186.521 588.146C180.171 588.358 174.667 582.854 174.667 576.292Z" fill="black"/>
</svg>
