<?xml version="1.0" encoding="utf-8"?>
<!-- Generator: Adobe Illustrator 26.0.2, SVG Export Plug-In . SVG Version: 6.00 Build 0)  -->
<svg version="1.1" id="Capa_1" xmlns="http://www.w3.org/2000/svg" xmlns:xlink="http://www.w3.org/1999/xlink" x="0px" y="0px"
	 viewBox="0 0 1080 1080" style="enable-background:new 0 0 1080 1080;" xml:space="preserve">
<path d="M547.7,524.8c-11-0.1-20.7-3.8-29.1-11c-1.3-1.2-2.4-1.5-4.2-0.9c-19.6,6.5-40.3-4.8-45.1-24.6
	c-4.8-19.9,8.2-39.3,28.7-42.6c5.6-0.9,11.2-0.5,16.5,1.6c1.6,0.6,2.6,0.4,4-0.8c25.4-21.8,63.6-10.2,72.6,21.9
	C599,496.7,577.1,525.1,547.7,524.8z M509.9,504c-5.5-11.8-7.1-17.7-6.2-23.8c1.4,0,2.9,0,4.4,0c1.6,0,3.1,0,4.7,0
	c1.8,23.6,18.9,33.7,32.5,34.7c16.4,1.2,31.5-9.2,36.2-24.7c4.8-15.8-2.2-32.8-16.6-40.8c-13.8-7.7-31-4.2-39.1,4.1
	c7.8,7,12,15.6,12.1,26.3c-3.4,0-6.4,0-9.4,0c-1.6-19.7-18.7-27.2-31.1-24.2c-13.6,3.4-22.1,17.5-18.3,31
	C482.9,500.1,497.1,508.1,509.9,504z"/>
<path d="M508.5,595.7c-3,0-5.8,0-8.7,0c-0.1-1.6-0.2-3.1-0.3-5.1c-4.2,4.5-9,6.8-14.8,6.3c-5.8-0.4-10.5-3-14-7.7
	c-6.2-8.4-5.3-21.2,1.9-28.4c7.4-7.4,16.6-7.4,27,0.2c0-6.7,0-13.1,0-19.6c3.2,0,5.9,0,8.9,0C508.5,559.5,508.5,577.5,508.5,595.7z
	 M500,576.1c0-6.9-5.3-12.4-11.9-12.4c-6.6-0.1-12.2,5.7-12.2,12.6c0,6.8,5.5,12.4,12,12.5C494.6,588.7,500,583.1,500,576.1z"/>
<path d="M652.4,591.3c-0.1,1.5-0.2,2.8-0.2,4.4c-2.9,0-5.7,0-8.7,0c0-18,0-36,0-54.2c2.8,0,5.6,0,8.7,0c0,6.5,0,13,0,20.4
	c5.1-5.2,10.6-7.5,17.2-6.2c4.6,0.9,8.4,3.1,11.3,6.7c6.6,8.2,6.1,21.1-1,28.7C672.4,598.6,663.2,598.8,652.4,591.3z M652,575.9
	c-0.1,7.1,5.2,12.7,12,12.7c6.5,0,12-5.5,12.1-12.3c0.1-6.8-5.4-12.7-12.1-12.7C657.5,563.6,652.1,569.1,652,575.9z"/>
<path d="M419,579c-10,0-20,0-30.1,0c0.2,4.6,3.2,8.2,7.6,9.6c5.2,1.7,9.5,0.1,14-5.4c2.3,1.1,4.7,2.2,7.1,3.4
	c-3.1,8.2-14.3,12.5-24.3,9.3c-10.6-3.3-16.2-14.4-13-25.8c2.9-10.7,13.1-16.7,24.1-14.3C414.3,558,420.8,568.2,419,579z M409.9,572
	c-0.5-5.5-4.8-9.2-10.3-9.2c-5.3,0-9.9,4-10.5,9.2C395.9,572,402.8,572,409.9,572z"/>
<path d="M728.3,578.9c-10.1,0-20.1,0-30,0c0,4.4,2.7,7.9,7,9.5c5.3,1.9,9.6,0.5,14.6-5.1c2.3,1.1,4.7,2.2,7.1,3.4
	c-3.6,8.5-14.9,12.6-25,9.1c-10.1-3.5-15.4-14.4-12.4-25.6c2.7-10.3,12.6-16.4,23.3-14.4C723.2,557.7,729.7,567.1,728.3,578.9z
	 M719.2,572c-0.7-5.6-5.1-9.3-10.7-9.1c-5.2,0.1-9.7,4.2-10.1,9.1C705.3,572,712.2,572,719.2,572z"/>
<path d="M548.4,595.7c-3.1,0-5.6,0-8.3,0c-0.1-1.3-0.2-2.5-0.3-3.2c-3.3,1.4-6.5,3.4-10,4.2c-7.6,1.7-14.1-2.8-15.2-9.8
	c-0.8-5.5,1.9-10.6,7.6-12.4c5.1-1.6,10.5-2.1,15.8-3.1c0.4-0.1,0.8-0.1,1.1-0.2c0.8-3.9-0.5-6.5-3.7-7.8c-4.5-1.7-8.2,0-11.3,5.3
	c-2.6-0.7-5.2-1.3-7.9-2c1.3-6.6,7.5-11.3,15.4-11.5c9.9-0.2,17.3,4.4,16.9,16.1C548.2,579.4,548.4,587.5,548.4,595.7z M539.2,577.9
	c-4.2,0.8-8.3,1.4-12.3,2.5c-2.5,0.7-3.6,2.9-3,5.4c0.5,2.4,2.3,3.4,4.5,3.6C536.3,590.2,540.8,584.1,539.2,577.9z"/>
<path d="M556.5,556.4c3,0,5.8,0,8.8,0c0.1,1.4,0.2,2.7,0.3,3.5c3.2-1.5,6.4-3.6,9.9-4.4c8.5-1.9,16.1,3.7,17.3,12.3
	c0.2,1.6,0.4,3.2,0.4,4.8c0,7.6,0,15.2,0,23c-3.1,0-6.1,0-9.3,0c0-6.2,0-12.2,0-18.3c0-1.5,0-3,0-4.5c-0.3-5.4-3.3-8.7-8.2-8.9
	c-5.3-0.3-9.4,2.9-9.9,8.3c-0.4,5.4-0.3,10.8-0.3,16.2c0,2.4,0,4.8,0,7.3c-3.1,0-5.9,0-9,0C556.5,582.7,556.5,569.7,556.5,556.4z"/>
<path d="M433.8,595.7c-3.2,0-6,0-8.9,0c0-13.1,0-26.1,0-39.3c3,0,5.8,0,8.8,0c0.1,1.5,0.1,2.8,0.2,3.6c3.2-1.5,6.3-3.6,9.7-4.4
	c9.1-2.1,17.3,4.1,17.7,13.4c0.4,8.8,0.1,17.5,0.1,26.6c-2.9,0-5.7,0-8.9,0c0-1-0.1-2-0.1-3.1c0-6.2,0.1-12.4,0-18.6
	c-0.1-7.4-4.3-11.1-11-9.9c-4.5,0.8-7.4,5-7.5,10.8c-0.1,5.9,0,11.8,0,17.7C433.8,593.5,433.8,594.5,433.8,595.7z"/>
<path d="M626.3,556.5c3.2,0,6,0,9,0c0,8.8,0.6,17.5-0.2,26.1c-0.9,10-9.4,15.7-19.8,14.3c-9.2-1.3-14.7-6.8-15-16.1
	c-0.3-8-0.1-15.9-0.1-24.2c3,0,5.9,0,9.3,0c0,2.5,0,5.1,0,7.6c0,5.3-0.1,10.6,0.1,15.9c0.2,5.1,3.4,8.2,8,8.3c4.8,0.1,8-2.7,8.3-7.9
	c0.4-6.7,0.2-13.4,0.3-20C626.3,559.2,626.3,557.9,626.3,556.5z"/>
<path d="M359,564.1c-2.2,0-4.2,0-6.5,0c0,10.6,0,21,0,31.6c-3.2,0-6,0-9.2,0c0-10.5,0-20.9,0-31.6c-2.4,0-4.4,0-6.6,0
	c0-2.7,0-5,0-7.6c2.1-0.1,4.1-0.2,6.4-0.3c0-3.9,0-7.6,0-11.6c3.1,0,6,0,9.3,0c0,3.8,0,7.6,0,11.7c2.5,0,4.6,0,6.6,0
	C359,559.1,359,561.5,359,564.1z"/>
<path d="M373.6,595.8c-3,0-5.8,0-8.8,0c0-13.1,0-26.1,0-39.3c2.9,0,5.7,0,8.8,0C373.6,569.5,373.6,582.5,373.6,595.8z"/>
<path d="M363.5,544.6c0-3.3,2.4-5.7,5.6-5.7c3.2,0,5.7,2.4,5.7,5.6c0,3.1-2.6,5.7-5.7,5.7C366.1,550.3,363.5,547.7,363.5,544.6z"/>
</svg>
