<svg id="Capa_1" data-name="Capa 1" xmlns="http://www.w3.org/2000/svg" width="208.429" height="46" viewBox="0 0 208.429 46">
  <path id="Trazado_128" data-name="Trazado 128" d="M51.5,66.452a.253.253,0,0,1-.206-.092.262.262,0,0,1-.059-.222,1.45,1.45,0,0,0-.308-1.112,2.024,2.024,0,0,0-1.761-.388l-5.235.582a.028.028,0,0,0-.018.046c.523.548,1.075,1.278.9,1.807-.1.308-.373.471-.819.517-.8.083-2.74.271-4.57.446a1.3,1.3,0,0,1-1.278-.616,1.272,1.272,0,0,1,.188-1.493l.049-.052c.881-.955,1.281-1.974.973-2.482-.351-.579-1.666-.6-3.606-.046-.135.034-12.9,3.165-24.8.942a.129.129,0,0,0-.16.1.191.191,0,0,0,.1.237c2.408.988,5.4,2.214,5.971,2.433.677.24,4.077,1.54,4.1,2.836,0,.45-.351.819-1.059,1.1-.228.117-2.71,1.321-10.026,2.325-1.5.212-5.5,1.062-6.035,2.4a.868.868,0,0,0,.135.831L50.544,69h.065a2.877,2.877,0,0,1,2.4,1.453.028.028,0,0,0,.049,0c.363-.924.785-2.426.246-3.3A1.874,1.874,0,0,0,51.5,66.452Z" transform="translate(-2.628 -43.565)" fill="#271670"/>
  <path id="Trazado_129" data-name="Trazado 129" d="M51.69,22.962a2.654,2.654,0,0,0-1.949-1.207,2.328,2.328,0,0,0-.56-1.1,2.426,2.426,0,0,0-1.269-.705A21.95,21.95,0,0,0,4.1,22.17a22.293,22.293,0,0,0,1.05,6.774C3.23,29.385.738,30.228.147,31.716a2.078,2.078,0,0,0,.388,2.131.924.924,0,0,0,.721.354.77.77,0,0,0,.145,0l5.66-.924a21.888,21.888,0,0,0,40.494-6.568l.44-.068c.366.049,1.441.265,1.395,1.182a.924.924,0,0,0,1.731.465C51.293,27.941,52.851,24.84,51.69,22.962ZM30.9,8.585h7.941V23.094l-2.2.212c-.034,0-.052,0-.068-.034a.074.074,0,0,1,0-.092l.062-.062c1.013-1.1,1.848-2.707,1.115-3.9-.616-1-1.946-1.262-4.061-.791v-1.21q0-.779.018-2.18t.018-2.155l-1.312,5.85c-.668.148-2.078.443-4,.739Zm-17.613,0h8.031l2.627,11.43c-1.232.117-2.537.206-3.9.259l-1.644-7.4q0,.764.018,2.155v5.3c-1.663.022-3.387-.022-5.142-.16Zm5.142,26.66H13.283v-2.99l5.142-.847Zm10.3,0H23.361l-.991-4.453L30,29.56Zm10.112,0H33.7v-6.3l5.142-.834Zm11.7-7.264a.259.259,0,0,1-.308.132.265.265,0,0,1-.194-.268c.083-1.613-1.777-1.848-2.057-1.884h0L1.3,33.529h-.04a.265.265,0,0,1-.206-.1,1.438,1.438,0,0,1-.308-1.475c.742-1.848,5.866-2.645,6.448-2.728,7.418-1.016,9.853-2.263,9.869-2.276h.028c.277-.108.739-.326.736-.616,0-.7-2.2-1.792-3.75-2.349-.57-.219-3.566-1.444-5.977-2.429a.714.714,0,0,1-.391-.878.65.65,0,0,1,.757-.474c11.784,2.2,24.44-.905,24.566-.924,2.272-.644,3.7-.548,4.188.283.536.887-.222,2.232-1.038,3.113l-.055.059a.736.736,0,0,0-.126.834.7.7,0,0,0,.714.4c1.848-.179,3.827-.37,4.64-.453.212-.025.351-.08.376-.157.083-.256-.416-.964-1.161-1.65a.294.294,0,0,1,.16-.508l5.777-.65a2.483,2.483,0,0,1,2.208.557,1.823,1.823,0,0,1,.446,1.232.028.028,0,0,0,.028.025,2.221,2.221,0,0,1,1.952.951c.979,1.583-.539,4.542-.6,4.665ZM13.28,27.454V24.375l.582.231a10.517,10.517,0,0,1,3.172,1.641l-.166.071-.1.043a17.572,17.572,0,0,1-3.486,1.093Z" transform="translate(-0.008)" fill="#271670"/>
  <path id="Trazado_130" data-name="Trazado 130" d="M3.885,75.718a.868.868,0,0,0,.135.831L50.572,69h.065a2.877,2.877,0,0,1,2.4,1.453.028.028,0,0,0,.049,0c.363-.924.785-2.426.246-3.3a1.9,1.9,0,0,0-1.807-.7.253.253,0,0,1-.206-.092.262.262,0,0,1-.059-.222,1.45,1.45,0,0,0-.308-1.112,2.024,2.024,0,0,0-1.761-.388l-5.235.582a.028.028,0,0,0-.018.046c.523.548,1.075,1.278.9,1.807-.1.308-.373.471-.819.517-.8.083-2.74.271-4.57.446a1.3,1.3,0,0,1-1.278-.616,1.272,1.272,0,0,1,.188-1.493l.049-.052c.881-.955,1.281-1.974.973-2.482-.351-.579-1.666-.6-3.606-.046-.135.034-12.9,3.165-24.8.942a.129.129,0,0,0-.16.1.191.191,0,0,0,.1.237c2.408.988,5.4,2.211,5.971,2.433.677.24,4.077,1.54,4.1,2.836,0,.45-.351.819-1.059,1.1-.228.117-2.71,1.321-10.026,2.325C8.424,73.528,4.421,74.378,3.885,75.718Z" transform="translate(-2.656 -43.565)" fill="#dd312d"/>
  <path id="Trazado_131" data-name="Trazado 131" d="M225.183,46.76h7.23V71.021h-4.68V54.612c0-.474,0-1.133.015-1.986s.015-1.506.015-1.965l-4.554,20.36h-4.874L213.8,50.661q0,.69.018,1.965v18.4h-4.68V46.76h7.307l4.379,19.091Z" transform="translate(-144.744 -32.362)" fill="#271670"/>
  <path id="Trazado_132" data-name="Trazado 132" d="M302.912,73.343a7.267,7.267,0,0,0,1.848-.413,1.41,1.41,0,0,0,1-1.333,1.593,1.593,0,0,0-.77-1.521,4.7,4.7,0,0,0-2.257-.419,2.951,2.951,0,0,0-2.365.822,3.433,3.433,0,0,0-.662,1.644h-4.474a6.932,6.932,0,0,1,1.309-3.867q1.848-2.371,6.359-2.371a11.248,11.248,0,0,1,5.207,1.17q2.279,1.17,2.279,4.412V79.7c0,.573,0,1.262.031,2.075a2.647,2.647,0,0,0,.277,1.25,1.684,1.684,0,0,0,.687.545v.69h-5.056a5.3,5.3,0,0,1-.308-1.019c-.052-.308-.1-.681-.129-1.087a9.675,9.675,0,0,1-2.232,1.8,6.682,6.682,0,0,1-3.412.871,5.85,5.85,0,0,1-4-1.392,4.951,4.951,0,0,1-1.583-3.941,5.124,5.124,0,0,1,2.546-4.791,11.348,11.348,0,0,1,4.108-1.152Zm2.842,2.189a4.946,4.946,0,0,1-.9.453,7.609,7.609,0,0,1-1.247.308l-1.056.2a6.864,6.864,0,0,0-2.137.644,2.156,2.156,0,0,0-1.1,1.992,2.091,2.091,0,0,0,.671,1.737,2.531,2.531,0,0,0,1.632.533,4.838,4.838,0,0,0,2.805-.887,3.785,3.785,0,0,0,1.333-3.242Z" transform="translate(-203.931 -45.597)" fill="#271670"/>
  <path id="Trazado_133" data-name="Trazado 133" d="M363.89,71.021h-4.65V46.76h4.65Z" transform="translate(-248.626 -32.362)" fill="#271670"/>
  <path id="Trazado_134" data-name="Trazado 134" d="M393.4,73.343a7.267,7.267,0,0,0,1.848-.413,1.407,1.407,0,0,0,1-1.333,1.583,1.583,0,0,0-.767-1.521,4.772,4.772,0,0,0-2.257-.419,2.947,2.947,0,0,0-2.365.822,3.434,3.434,0,0,0-.662,1.644h-4.474a6.882,6.882,0,0,1,1.309-3.867q1.848-2.371,6.355-2.371a11.251,11.251,0,0,1,5.21,1.17q2.279,1.17,2.276,4.412V79.7c0,.573,0,1.262.034,2.075a2.574,2.574,0,0,0,.277,1.25,1.675,1.675,0,0,0,.684.545v.69h-5.059a5.514,5.514,0,0,1-.293-1.019c-.055-.308-.1-.681-.129-1.087a9.675,9.675,0,0,1-2.232,1.8,6.688,6.688,0,0,1-3.412.871,5.851,5.851,0,0,1-4-1.392,4.978,4.978,0,0,1-1.583-3.941,5.124,5.124,0,0,1,2.547-4.791,11.374,11.374,0,0,1,4.108-1.152Zm2.842,2.189a4.944,4.944,0,0,1-.9.453,7.61,7.61,0,0,1-1.247.308l-1.059.2a6.866,6.866,0,0,0-2.134.644,2.155,2.155,0,0,0-1.1,1.992,2.085,2.085,0,0,0,.671,1.737,2.522,2.522,0,0,0,1.629.533,4.837,4.837,0,0,0,2.808-.887,3.785,3.785,0,0,0,1.333-3.242Z" transform="translate(-266.564 -45.597)" fill="#271670"/>
  <path id="Trazado_135" data-name="Trazado 135" d="M459.154,65.872a3.164,3.164,0,0,1,.4.025V70.7c-.293-.034-.554-.055-.782-.065s-.413-.018-.554-.018q-2.808,0-3.769,1.848a7.3,7.3,0,0,0-.539,3.193v8.576h-4.68V66.29h4.437v3.128a10.261,10.261,0,0,1,1.875-2.463,5.09,5.09,0,0,1,3.387-1.105A2.159,2.159,0,0,1,459.154,65.872Z" transform="translate(-310.906 -45.574)" fill="#271670"/>
  <path id="Trazado_136" data-name="Trazado 136" d="M497.947,66.3a5.6,5.6,0,0,1,2.734,2.6V66.315h4.536V83.337a9.605,9.605,0,0,1-1.158,5.235Q502.07,91.6,496.426,91.6a10.329,10.329,0,0,1-5.561-1.349,4.993,4.993,0,0,1-2.383-4.034h5.056a2.106,2.106,0,0,0,.637,1.185,3.89,3.89,0,0,0,2.528.644q2.513,0,3.359-1.7a8.668,8.668,0,0,0,.554-3.655V81.542a5.62,5.62,0,0,1-1.435,1.727,5.728,5.728,0,0,1-3.606,1.072,6.788,6.788,0,0,1-5.469-2.426,9.894,9.894,0,0,1-2.048-6.577,11.164,11.164,0,0,1,1.971-6.725,6.5,6.5,0,0,1,5.586-2.725A6.084,6.084,0,0,1,497.947,66.3Zm1.583,12.862a5.723,5.723,0,0,0,1.136-3.957,6.107,6.107,0,0,0-1.065-3.883,3.455,3.455,0,0,0-2.848-1.333,3.358,3.358,0,0,0-3.362,2.319,8.313,8.313,0,0,0-.487,3.045,7.082,7.082,0,0,0,.517,2.771,3.4,3.4,0,0,0,3.387,2.269A3.557,3.557,0,0,0,499.53,79.161Z" transform="translate(-337.78 -45.598)" fill="#271670"/>
  <path id="Trazado_137" data-name="Trazado 137" d="M562.21,52.373V63.19a5.751,5.751,0,0,0,.357,2.3,2.461,2.461,0,0,0,2.482,1.367,3.241,3.241,0,0,0,3.249-1.943,7.147,7.147,0,0,0,.453-2.771V52.373h4.714V70.315h-4.517V67.781c-.043.055-.154.219-.326.493a3.267,3.267,0,0,1-.616.727,6.432,6.432,0,0,1-2.106,1.349,7.122,7.122,0,0,1-2.38.363q-3.935,0-5.3-2.867a11.037,11.037,0,0,1-.767-4.656V52.373Zm-2.128-6.633h4.249v3.9h-4.249Zm6.525,0h4.252v3.9H566.6Z" transform="translate(-385.803 -31.656)" fill="#271670"/>
  <path id="Trazado_138" data-name="Trazado 138" d="M632.54,66.541A7.27,7.27,0,0,1,635.62,69.2a8.826,8.826,0,0,1,1.416,3.7,23.137,23.137,0,0,1,.154,3.56H624.233a4.323,4.323,0,0,0,1.847,3.787,4.686,4.686,0,0,0,2.562.674,3.609,3.609,0,0,0,3.538-2.057h4.745A5.894,5.894,0,0,1,635.2,82.1a8.6,8.6,0,0,1-6.688,2.617,9.629,9.629,0,0,1-6.26-2.208q-2.716-2.208-2.713-7.184,0-4.662,2.448-7.15a8.527,8.527,0,0,1,6.359-2.488A10.053,10.053,0,0,1,632.54,66.541ZM625.584,70.6a4.9,4.9,0,0,0-1.232,2.771h8.006a3.949,3.949,0,0,0-1.232-2.836,4.049,4.049,0,0,0-2.771-.967A3.688,3.688,0,0,0,625.584,70.6Z" transform="translate(-428.774 -45.461)" fill="#271670"/>
  <path id="Trazado_139" data-name="Trazado 139" d="M389.12,13.53h7.193v1.232h-5.884V17.8h5.429v1.158h-5.429v3.387h5.986v1.182H389.12Z" transform="translate(-269.305 -9.364)" fill="#271670"/>
  <path id="Trazado_140" data-name="Trazado 140" d="M415.589,22.33h1.577l1.663,2.568,1.678-2.568,1.478.034-2.436,3.523,2.543,3.732h-1.54l-1.8-2.737L417,29.618h-1.54L418,25.88Z" transform="translate(-287.535 -15.454)" fill="#271670"/>
  <path id="Trazado_141" data-name="Trazado 141" d="M440.23,21.968h1.189v.967a2.965,2.965,0,0,1,.8-.767,2.544,2.544,0,0,1,1.447-.41,2.719,2.719,0,0,1,2.091.948,3.88,3.88,0,0,1,.871,2.716,4.2,4.2,0,0,1-1.232,3.406,2.79,2.79,0,0,1-1.826.647,2.463,2.463,0,0,1-1.376-.36,3.134,3.134,0,0,1-.727-.7v3.726h-1.213Zm4.57,5.715a3.4,3.4,0,0,0,.567-2.155,3.975,3.975,0,0,0-.253-1.5,1.832,1.832,0,0,0-3.467.068,5.1,5.1,0,0,0-.256,1.737,3.71,3.71,0,0,0,.249,1.438,1.848,1.848,0,0,0,3.159.41Z" transform="translate(-304.677 -15.058)" fill="#271670"/>
  <path id="Trazado_142" data-name="Trazado 142" d="M465.63,21.963h1.155v1.262a2.771,2.771,0,0,1,.7-.9,1.777,1.777,0,0,1,1.275-.53h.114l.277.028v1.3a1.232,1.232,0,0,0-.2-.028h-.2a1.721,1.721,0,0,0-1.41.594,2.088,2.088,0,0,0-.493,1.373v4.188H465.63Z" transform="translate(-322.256 -15.087)" fill="#271670"/>
  <path id="Trazado_143" data-name="Trazado 143" d="M484.042,22.186a2.753,2.753,0,0,1,1.093.942,3.3,3.3,0,0,1,.483,1.287,8.6,8.6,0,0,1,.108,1.607h-5.268a3.147,3.147,0,0,0,.517,1.786,1.709,1.709,0,0,0,1.493.674,1.909,1.909,0,0,0,1.506-.637,2.214,2.214,0,0,0,.446-.856h1.195a2.654,2.654,0,0,1-.308.9,3.245,3.245,0,0,1-.594.807,2.8,2.8,0,0,1-1.361.736,4,4,0,0,1-.985.108,3.008,3.008,0,0,1-2.272-.988,3.917,3.917,0,0,1-.924-2.771,4.246,4.246,0,0,1,.939-2.854,3.079,3.079,0,0,1,2.463-1.1,3.242,3.242,0,0,1,1.469.36Zm.434,2.864a3.215,3.215,0,0,0-.342-1.275,1.74,1.74,0,0,0-1.654-.884,1.829,1.829,0,0,0-1.392.616,2.334,2.334,0,0,0-.594,1.54Z" transform="translate(-331.625 -15.104)" fill="#271670"/>
  <path id="Trazado_144" data-name="Trazado 144" d="M505.164,26.823a1.765,1.765,0,0,0,.308.924,1.949,1.949,0,0,0,1.626.594,2.432,2.432,0,0,0,1.213-.308.988.988,0,0,0,.523-.924.779.779,0,0,0-.419-.714,4.928,4.928,0,0,0-1.056-.348l-.982-.246a4.76,4.76,0,0,1-1.383-.517,1.539,1.539,0,0,1-.8-1.376,2.1,2.1,0,0,1,.748-1.675,3.017,3.017,0,0,1,2.017-.64,2.8,2.8,0,0,1,2.386.967,2.1,2.1,0,0,1,.443,1.324h-1.145a1.414,1.414,0,0,0-.308-.754,1.964,1.964,0,0,0-1.484-.48,1.811,1.811,0,0,0-1.068.265.828.828,0,0,0-.363.7.862.862,0,0,0,.477.761,2.854,2.854,0,0,0,.813.308l.816.2a6.4,6.4,0,0,1,1.789.616,1.644,1.644,0,0,1,.708,1.478,2.239,2.239,0,0,1-.742,1.681,3.164,3.164,0,0,1-2.257.708,3.055,3.055,0,0,1-2.312-.739,2.787,2.787,0,0,1-.714-1.8Z" transform="translate(-348.811 -14.94)" fill="#271670"/>
  <path id="Trazado_145" data-name="Trazado 145" d="M532,22.605a3.667,3.667,0,0,1,.958,2.771,4.788,4.788,0,0,1-.844,2.913,3.04,3.04,0,0,1-2.62,1.149,2.935,2.935,0,0,1-2.349-1.016,4.066,4.066,0,0,1-.874-2.731,4.358,4.358,0,0,1,.924-2.928,3.079,3.079,0,0,1,2.463-1.087,3.208,3.208,0,0,1,2.343.93Zm-.754,4.847a4.619,4.619,0,0,0,.443-2.051,3.694,3.694,0,0,0-.308-1.66,1.792,1.792,0,0,0-1.746-1.007,1.724,1.724,0,0,0-1.6.856,4.055,4.055,0,0,0-.5,2.069,3.52,3.52,0,0,0,.5,1.94,1.755,1.755,0,0,0,1.589.776A1.633,1.633,0,0,0,531.246,27.452Z" transform="translate(-364.224 -15)" fill="#271670"/>
</svg>
