<svg width="104" height="43" viewBox="0 0 104 43" fill="none" xmlns="http://www.w3.org/2000/svg">
<path d="M55.8886 23.517C52.9749 23.4907 50.4056 22.5181 48.1807 20.6256C47.8364 20.3102 47.545 20.2313 47.0682 20.389C41.8767 22.0976 36.3938 19.1273 35.1224 13.9229C33.851 8.69213 37.2944 3.59281 42.7243 2.7254C44.2076 2.48884 45.6909 2.59397 47.0947 3.14596C47.5185 3.30367 47.7834 3.2511 48.1542 2.93568C54.882 -2.79448 65.0002 0.254594 67.3841 8.69213C69.4766 16.1308 63.6759 23.5958 55.8886 23.517ZM45.8763 18.0496C44.4195 14.948 43.9957 13.3972 44.2341 11.7938C44.6049 11.7938 45.0022 11.7938 45.3995 11.7938C45.8233 11.7938 46.2206 11.7938 46.6444 11.7938C47.1212 17.9971 51.6506 20.6519 55.2528 20.9147C59.5968 21.2302 63.5964 18.4965 64.8413 14.4223C66.1127 10.2692 64.2586 5.80076 60.4444 3.69795C56.7891 1.67399 52.2333 2.59397 50.0878 4.77564C52.1538 6.6156 53.2663 8.87612 53.2928 11.6886C52.3922 11.6886 51.5976 11.6886 50.803 11.6886C50.3792 6.51046 45.8498 4.53908 42.5654 5.32763C38.9631 6.22133 36.7117 9.92754 37.7182 13.476C38.7247 17.0245 42.4859 19.1273 45.8763 18.0496Z" fill="black"/>
<path d="M45.5056 42.1532C44.7109 42.1532 43.9693 42.1532 43.2011 42.1532C43.1746 41.7326 43.1482 41.3383 43.1217 40.8126C42.0092 41.9955 40.7378 42.6 39.2015 42.4686C37.6653 42.3635 36.4203 41.6801 35.4933 40.4447C33.8511 38.2367 34.0894 34.8722 35.9965 32.9797C37.9566 31.0346 40.3935 31.0346 43.1482 33.0322C43.1482 31.2711 43.1482 29.5889 43.1482 27.8804C43.9958 27.8804 44.7109 27.8804 45.5056 27.8804C45.5056 32.638 45.5056 37.3693 45.5056 42.1532ZM43.2541 37.0013C43.2541 35.1876 41.8503 33.742 40.1021 33.742C38.3539 33.7157 36.8706 35.2402 36.8706 37.0539C36.8706 38.8413 38.3274 40.3132 40.0491 40.3395C41.8238 40.3132 43.2541 38.8413 43.2541 37.0013Z" fill="black"/>
<path d="M83.6208 40.9967C83.5943 41.391 83.5678 41.7327 83.5678 42.1533C82.7997 42.1533 82.0581 42.1533 81.2634 42.1533C81.2634 37.4219 81.2634 32.6906 81.2634 27.9067C82.0051 27.9067 82.7467 27.9067 83.5678 27.9067C83.5678 29.6153 83.5678 31.3238 83.5678 33.2689C84.9187 31.9021 86.3755 31.2975 88.1237 31.6392C89.3421 31.8758 90.3486 32.4541 91.1168 33.4003C92.8649 35.5557 92.7325 38.9465 90.8519 40.9441C88.9183 42.9155 86.4815 42.9681 83.6208 40.9967ZM83.5149 36.9488C83.4884 38.8151 84.8922 40.287 86.6933 40.287C88.415 40.287 89.8718 38.8413 89.8983 37.0539C89.9248 35.2666 88.468 33.7157 86.6933 33.7157C84.9717 33.7157 83.5413 35.1614 83.5149 36.9488Z" fill="black"/>
<path d="M21.799 37.7639C19.1503 37.7639 16.5015 37.7639 13.8263 37.7639C13.8793 38.973 14.6739 39.9193 15.8394 40.2873C17.2167 40.7342 18.3557 40.3136 19.5476 38.8679C20.1568 39.157 20.7925 39.4462 21.4282 39.7616C20.6071 41.9171 17.6405 43.0474 14.9918 42.2062C12.1841 41.3388 10.7008 38.421 11.5484 35.4244C12.3165 32.6118 15.0182 31.0346 17.9319 31.6655C20.5541 32.2438 22.2758 34.925 21.799 37.7639ZM19.3887 35.9238C19.2562 34.4781 18.1173 33.5055 16.6605 33.5055C15.2566 33.5055 14.0382 34.557 13.8793 35.9238C15.6804 35.9238 17.5081 35.9238 19.3887 35.9238Z" fill="black"/>
<path d="M103.725 37.7372C101.05 37.7372 98.4008 37.7372 95.7786 37.7372C95.7786 38.8938 96.4937 39.8138 97.6327 40.2343C99.0365 40.7338 100.175 40.3658 101.5 38.8938C102.109 39.1829 102.745 39.4721 103.38 39.7875C102.427 42.0217 99.4338 43.0994 96.7586 42.1794C94.0834 41.2595 92.6795 38.3944 93.4742 35.4504C94.1893 32.743 96.8116 31.1396 99.6457 31.6653C102.374 32.1647 104.096 34.6355 103.725 37.7372ZM101.314 35.9235C101.129 34.4515 99.9636 33.479 98.4803 33.5316C97.1029 33.5578 95.911 34.6355 95.8051 35.9235C97.6327 35.9235 99.4603 35.9235 101.314 35.9235Z" fill="black"/>
<path d="M56.0739 42.1533C55.2528 42.1533 54.5906 42.1533 53.8754 42.1533C53.8489 41.8116 53.8225 41.4962 53.796 41.3122C52.9219 41.6802 52.0743 42.2059 51.1472 42.4162C49.1342 42.863 47.4125 41.6802 47.1211 39.8402C46.9092 38.3944 47.6244 37.0538 49.1342 36.5807C50.485 36.1601 51.9154 36.0287 53.3192 35.7658C53.4252 35.7395 53.5311 35.7395 53.6106 35.7133C53.8225 34.6881 53.4781 34.0047 52.6305 33.6629C51.4386 33.2161 50.4585 33.6629 49.6374 35.0561C48.9488 34.8721 48.2601 34.7144 47.5449 34.5304C47.8893 32.7955 49.5315 31.5601 51.624 31.5075C54.2463 31.4549 56.2063 32.6641 56.1004 35.7395C56.0209 37.8687 56.0739 39.9979 56.0739 42.1533ZM53.6371 37.4744C52.5246 37.6847 51.4386 37.8424 50.3791 38.1316C49.7169 38.3156 49.4255 38.8938 49.5845 39.551C49.7169 40.1819 50.1937 40.4447 50.7764 40.4973C52.8689 40.7076 54.0609 39.1041 53.6371 37.4744Z" fill="black"/>
<path d="M58.2195 31.8228C59.0141 31.8228 59.7557 31.8228 60.5504 31.8228C60.5769 32.1908 60.6033 32.5325 60.6298 32.7428C61.4774 32.3485 62.325 31.7965 63.2521 31.5862C65.5035 31.0868 67.5166 32.5588 67.8344 34.8193C67.8874 35.2398 67.9404 35.6604 67.9404 36.081C67.9404 38.0786 67.9404 40.0763 67.9404 42.1265C67.1193 42.1265 66.3246 42.1265 65.477 42.1265C65.477 40.4969 65.477 38.9198 65.477 37.3164C65.477 36.9221 65.477 36.5278 65.477 36.1335C65.3976 34.7141 64.603 33.8467 63.3051 33.7942C61.9012 33.7153 60.8152 34.5564 60.6828 35.9758C60.5769 37.3952 60.6034 38.8146 60.6034 40.234C60.6034 40.8649 60.6034 41.4957 60.6034 42.1528C59.7822 42.1528 59.0406 42.1528 58.2195 42.1528C58.2195 38.7358 58.2195 35.3187 58.2195 31.8228Z" fill="black"/>
<path d="M25.7192 42.1528C24.8716 42.1528 24.13 42.1528 23.3618 42.1528C23.3618 38.7097 23.3618 35.2928 23.3618 31.8233C24.1564 31.8233 24.8981 31.8233 25.6927 31.8233C25.7192 32.2176 25.7192 32.5593 25.7457 32.7695C26.5933 32.3753 27.4144 31.8233 28.315 31.6131C30.7253 31.0611 32.8973 32.6907 33.0033 35.1351C33.1092 37.448 33.0297 39.7347 33.0297 42.1265C32.2616 42.1265 31.52 42.1265 30.6724 42.1265C30.6724 41.8637 30.6459 41.6009 30.6459 41.3117C30.6459 39.6822 30.6724 38.0526 30.6459 36.423C30.6194 34.478 29.5069 33.5055 27.7322 33.8209C26.5403 34.0312 25.7722 35.1351 25.7457 36.6595C25.7192 38.2103 25.7457 39.761 25.7457 41.3117C25.7192 41.5746 25.7192 41.8374 25.7192 42.1528Z" fill="black"/>
<path d="M76.7075 31.8496C77.5551 31.8496 78.2967 31.8496 79.0913 31.8496C79.0913 34.1627 79.2503 36.4495 79.0384 38.71C78.8 41.3385 76.5486 42.8368 73.7939 42.4688C71.357 42.1271 69.9002 40.6814 69.8208 38.2369C69.7413 36.1341 69.7943 34.0575 69.7943 31.8759C70.5889 31.8759 71.357 31.8759 72.2576 31.8759C72.2576 32.533 72.2576 33.2164 72.2576 33.8736C72.2576 35.2667 72.2311 36.6598 72.2841 38.0529C72.3371 39.3934 73.1847 40.2083 74.4031 40.2345C75.6745 40.2608 76.5221 39.5248 76.6015 38.158C76.7075 36.3969 76.6545 34.6358 76.681 32.901C76.7075 32.5593 76.7075 32.2176 76.7075 31.8496Z" fill="black"/>
<path d="M5.90671 33.8471C5.32398 33.8471 4.79423 33.8471 4.18502 33.8471C4.18502 36.6332 4.18502 39.3667 4.18502 42.1528C3.33742 42.1528 2.59577 42.1528 1.74817 42.1528C1.74817 39.393 1.74817 36.6595 1.74817 33.8471C1.11247 33.8471 0.582725 33.8471 0 33.8471C0 33.1374 0 32.5329 0 31.8495C0.556237 31.8232 1.08599 31.7969 1.6952 31.7706C1.6952 30.7456 1.6952 29.773 1.6952 28.7217C2.51631 28.7217 3.28444 28.7217 4.15853 28.7217C4.15853 29.7205 4.15853 30.7193 4.15853 31.7969C4.82072 31.7969 5.37696 31.7969 5.90671 31.7969C5.90671 32.5329 5.90671 33.1637 5.90671 33.8471Z" fill="black"/>
<path d="M9.77377 42.1792C8.97915 42.1792 8.2375 42.1792 7.44287 42.1792C7.44287 38.736 7.44287 35.3191 7.44287 31.8496C8.21101 31.8496 8.95266 31.8496 9.77377 31.8496C9.77377 35.2665 9.77377 38.6834 9.77377 42.1792Z" fill="black"/>
<path d="M7.09863 28.7213C7.09863 27.8539 7.73433 27.2231 8.58193 27.2231C9.42953 27.2231 10.0917 27.8539 10.0917 28.695C10.0917 29.5098 9.40304 30.1931 8.58193 30.1931C7.78731 30.2194 7.09863 29.536 7.09863 28.7213Z" fill="black"/>
</svg>
