<svg xmlns="http://www.w3.org/2000/svg" width="266.333" height="58.779" viewBox="0 0 266.333 58.779">
  <g id="Capa_2" data-name="Capa 2" transform="translate(-0.008)">
    <g id="Capa_1" data-name="Capa 1" transform="translate(0.008)">
      <path id="Trazado_52" data-name="Trazado 52" d="M66.048,29.341A3.392,3.392,0,0,0,63.557,27.8a2.975,2.975,0,0,0-.716-1.4,3.1,3.1,0,0,0-1.621-.9A28.048,28.048,0,0,0,5.242,28.329a28.487,28.487,0,0,0,1.342,8.656c-2.459.563-5.642,1.641-6.4,3.541a2.656,2.656,0,0,0,.5,2.723A1.18,1.18,0,0,0,1.6,43.7a.983.983,0,0,0,.185,0l7.232-1.18a27.969,27.969,0,0,0,51.744-8.393l.563-.087c.468.063,1.841.338,1.782,1.511a1.18,1.18,0,0,0,2.211.594C65.54,35.7,67.531,31.741,66.048,29.341ZM39.477,10.97H49.625V29.51l-2.813.271c-.043,0-.067,0-.087-.043a.094.094,0,0,1,0-.118l.079-.079c1.294-1.409,2.361-3.459,1.424-4.989-.787-1.283-2.487-1.613-5.19-1.011V21.995q0-1,.024-2.786t.024-2.754L41.409,23.93c-.854.189-2.656.567-5.115.944Zm-22.506,0H27.233l3.356,14.605c-1.574.15-3.242.264-4.989.331l-2.1-9.459q0,.976.024,2.754v6.768c-2.125.028-4.328-.028-6.571-.2Zm6.571,34.066H16.971V41.215l6.571-1.082Zm13.161,0H29.849l-1.267-5.689,9.75-1.574Zm12.921,0H43.054v-8.05l6.571-1.066Zm14.952-9.282a.331.331,0,0,1-.393.169.338.338,0,0,1-.248-.342c.106-2.062-2.27-2.361-2.628-2.408h0L1.654,42.844H1.6a.338.338,0,0,1-.264-.13A1.837,1.837,0,0,1,.945,40.83c.948-2.361,7.5-3.38,8.239-3.486,9.479-1.3,12.591-2.892,12.61-2.908h.035c.354-.138.944-.417.94-.787,0-.889-2.809-2.29-4.792-3-.728-.279-4.556-1.845-7.637-3.1a.913.913,0,0,1-.5-1.121.83.83,0,0,1,.968-.606c15.058,2.813,31.229-1.157,31.391-1.18,2.9-.822,4.722-.7,5.351.362.685,1.133-.283,2.853-1.326,3.978l-.071.075a.94.94,0,0,0-.161,1.066.9.9,0,0,0,.913.512c2.361-.228,4.891-.472,5.929-.578.271-.031.449-.1.48-.2.106-.327-.531-1.232-1.483-2.109a.376.376,0,0,1,.2-.649l7.381-.83a3.173,3.173,0,0,1,2.821.712,2.329,2.329,0,0,1,.571,1.574.035.035,0,0,0,.035.031,2.838,2.838,0,0,1,2.495,1.216c1.251,2.022-.689,5.8-.771,5.961Zm-47.609-.673V31.147l.744.3a13.438,13.438,0,0,1,4.053,2.1l-.212.09-.126.055a22.453,22.453,0,0,1-4.454,1.4Z" transform="translate(-0.008 0)" fill="#fff"/>
      <path id="Trazado_53" data-name="Trazado 53" d="M229.639,46.76h9.239v31H232.9V56.793c0-.606,0-1.448.02-2.538s.02-1.924.02-2.51l-5.819,26.016h-6.229L215.1,51.745q0,.881.024,2.51V77.761H209.14v-31h9.337l5.6,24.395Z" transform="translate(-126.854 -28.362)" fill="#fff"/>
      <path id="Trazado_54" data-name="Trazado 54" d="M305.2,75.416a9.286,9.286,0,0,0,2.361-.527,1.8,1.8,0,0,0,1.283-1.7,2.035,2.035,0,0,0-.984-1.944,6.01,6.01,0,0,0-2.884-.535,3.771,3.771,0,0,0-3.022,1.051,4.387,4.387,0,0,0-.846,2.1H295.4a8.857,8.857,0,0,1,1.672-4.942q2.361-3.03,8.125-3.03a14.373,14.373,0,0,1,6.653,1.5q2.912,1.5,2.912,5.638V83.533c0,.732,0,1.613.039,2.652a3.384,3.384,0,0,0,.354,1.6,2.152,2.152,0,0,0,.877.7v.881h-6.461a6.779,6.779,0,0,1-.393-1.3c-.067-.393-.122-.87-.165-1.389a12.363,12.363,0,0,1-2.853,2.294,8.538,8.538,0,0,1-4.36,1.114,7.476,7.476,0,0,1-5.115-1.778,6.327,6.327,0,0,1-2.022-5.036,6.548,6.548,0,0,1,3.254-6.122,14.5,14.5,0,0,1,5.249-1.472Zm3.632,2.8a6.32,6.32,0,0,1-1.153.578,9.723,9.723,0,0,1-1.594.393l-1.35.252a8.77,8.77,0,0,0-2.731.822,2.754,2.754,0,0,0-1.4,2.546,2.672,2.672,0,0,0,.858,2.219,3.234,3.234,0,0,0,2.085.681,6.181,6.181,0,0,0,3.584-1.133q1.641-1.141,1.7-4.143Z" transform="translate(-178.725 -39.961)" fill="#fff"/>
      <path id="Trazado_55" data-name="Trazado 55" d="M365.181,77.761H359.24v-31h5.941Z" transform="translate(-217.895 -28.362)" fill="#fff"/>
      <path id="Trazado_56" data-name="Trazado 56" d="M395.693,75.416a9.285,9.285,0,0,0,2.361-.527,1.8,1.8,0,0,0,1.279-1.7,2.022,2.022,0,0,0-.98-1.944,6.1,6.1,0,0,0-2.884-.535,3.766,3.766,0,0,0-3.022,1.051,4.387,4.387,0,0,0-.846,2.1h-5.717a8.794,8.794,0,0,1,1.672-4.942q2.361-3.03,8.121-3.03a14.377,14.377,0,0,1,6.657,1.5q2.912,1.5,2.908,5.638V83.533c0,.732,0,1.613.043,2.652a3.29,3.29,0,0,0,.354,1.6,2.141,2.141,0,0,0,.873.7v.881h-6.465a7.045,7.045,0,0,1-.374-1.3c-.071-.393-.126-.87-.165-1.389a12.363,12.363,0,0,1-2.853,2.294,8.546,8.546,0,0,1-4.36,1.114,7.476,7.476,0,0,1-5.115-1.778,6.361,6.361,0,0,1-2.022-5.036,6.548,6.548,0,0,1,3.254-6.122,14.534,14.534,0,0,1,5.249-1.472Zm3.632,2.8a6.319,6.319,0,0,1-1.153.578,9.721,9.721,0,0,1-1.594.393l-1.354.252a8.774,8.774,0,0,0-2.727.822,2.754,2.754,0,0,0-1.4,2.546,2.665,2.665,0,0,0,.858,2.219,3.223,3.223,0,0,0,2.081.681,6.181,6.181,0,0,0,3.588-1.133q1.641-1.141,1.7-4.143Z" transform="translate(-233.617 -39.961)" fill="#fff"/>
      <path id="Trazado_57" data-name="Trazado 57" d="M461.911,65.878a4.043,4.043,0,0,1,.512.031v6.142c-.374-.043-.708-.071-1-.083s-.527-.024-.708-.024q-3.588,0-4.816,2.361a9.324,9.324,0,0,0-.689,4.08V89.344H449.23V66.413h5.67v4a13.113,13.113,0,0,1,2.4-3.148,6.5,6.5,0,0,1,4.328-1.413A2.756,2.756,0,0,1,461.911,65.878Z" transform="translate(-272.478 -39.94)" fill="#fff"/>
      <path id="Trazado_58" data-name="Trazado 58" d="M500.694,66.415a7.149,7.149,0,0,1,3.494,3.325V66.434h5.8V88.185q0,4.438-1.479,6.689-2.542,3.868-9.754,3.868a13.2,13.2,0,0,1-7.106-1.723,6.38,6.38,0,0,1-3.045-5.154h6.461a2.691,2.691,0,0,0,.814,1.515,4.97,4.97,0,0,0,3.23.822q3.211,0,4.293-2.168a11.075,11.075,0,0,0,.708-4.67V85.891a7.181,7.181,0,0,1-1.834,2.207,7.32,7.32,0,0,1-4.607,1.369,8.674,8.674,0,0,1-6.988-3.1q-2.613-3.1-2.617-8.4a14.265,14.265,0,0,1,2.518-8.593,8.3,8.3,0,0,1,7.137-3.482A7.775,7.775,0,0,1,500.694,66.415Zm2.022,16.435q1.452-1.574,1.452-5.056a7.8,7.8,0,0,0-1.361-4.962,4.415,4.415,0,0,0-3.64-1.7,4.291,4.291,0,0,0-4.3,2.963,10.624,10.624,0,0,0-.622,3.891,9.05,9.05,0,0,0,.661,3.541,4.343,4.343,0,0,0,4.328,2.9A4.544,4.544,0,0,0,502.716,82.85Z" transform="translate(-296.03 -39.962)" fill="#fff"/>
      <path id="Trazado_59" data-name="Trazado 59" d="M563.533,54.215V68.038a7.35,7.35,0,0,0,.456,2.943,3.145,3.145,0,0,0,3.171,1.747,4.141,4.141,0,0,0,4.151-2.483,9.131,9.131,0,0,0,.578-3.541V54.215h6.024V77.142h-5.772V73.9c-.055.071-.2.279-.417.63a4.174,4.174,0,0,1-.787.929,8.219,8.219,0,0,1-2.691,1.723,9.1,9.1,0,0,1-3.041.464q-5.029,0-6.775-3.663a14.1,14.1,0,0,1-.98-5.949V54.215Zm-2.719-8.475h5.43v4.985h-5.43Zm8.337,0h5.434v4.985H569.14Z" transform="translate(-338.117 -27.743)" fill="#fff"/>
      <path id="Trazado_60" data-name="Trazado 60" d="M636.152,66.778a9.29,9.29,0,0,1,3.935,3.4A11.275,11.275,0,0,1,641.9,74.9a29.592,29.592,0,0,1,.2,4.552H625.536q.138,3.447,2.361,4.836a5.988,5.988,0,0,0,3.274.862,4.611,4.611,0,0,0,4.521-2.628h6.063a7.532,7.532,0,0,1-2.2,4.143Q636.5,90,631.006,90a12.3,12.3,0,0,1-8-2.821q-3.47-2.821-3.466-9.18,0-5.957,3.128-9.136a10.9,10.9,0,0,1,8.125-3.179,12.91,12.91,0,0,1,5.359,1.09Zm-8.888,5.182A6.264,6.264,0,0,0,625.69,75.5h10.23a5.046,5.046,0,0,0-1.574-3.624,5.174,5.174,0,0,0-3.541-1.235A4.712,4.712,0,0,0,627.264,71.96Z" transform="translate(-375.777 -39.842)" fill="#fff"/>
      <path id="Trazado_61" data-name="Trazado 61" d="M389.12,13.53h9.191V15.1h-7.519v3.883h6.937v1.479h-6.937v4.328h7.649v1.511H389.12Z" transform="translate(-236.019 -8.206)" fill="#fff"/>
      <path id="Trazado_62" data-name="Trazado 62" d="M415.625,22.33h2.015l2.125,3.281,2.144-3.281,1.889.043-3.112,4.5,3.25,4.769h-1.967l-2.294-3.5-2.247,3.5H415.46l3.25-4.777Z" transform="translate(-251.995 -13.544)" fill="#fff"/>
      <path id="Trazado_63" data-name="Trazado 63" d="M440.23,22.026h1.519v1.235a3.79,3.79,0,0,1,1.019-.98,3.25,3.25,0,0,1,1.849-.523,3.474,3.474,0,0,1,2.672,1.212,4.958,4.958,0,0,1,1.114,3.47q0,3.045-1.574,4.352a3.565,3.565,0,0,1-2.333.826,3.148,3.148,0,0,1-1.759-.46,4,4,0,0,1-.929-.9v4.761h-1.55Zm5.839,7.3a4.351,4.351,0,0,0,.724-2.754,5.079,5.079,0,0,0-.323-1.912,2.341,2.341,0,0,0-4.43.087,6.512,6.512,0,0,0-.327,2.219,4.741,4.741,0,0,0,.319,1.837,2.361,2.361,0,0,0,4.037.523Z" transform="translate(-267.019 -13.197)" fill="#fff"/>
      <path id="Trazado_64" data-name="Trazado 64" d="M465.63,22.008h1.475v1.613a3.542,3.542,0,0,1,.889-1.145,2.27,2.27,0,0,1,1.629-.677h.146l.354.035v1.656a1.574,1.574,0,0,0-.256-.035h-.252a2.2,2.2,0,0,0-1.8.759,2.668,2.668,0,0,0-.63,1.755v5.351H465.63Z" transform="translate(-282.425 -13.222)" fill="#fff"/>
      <path id="Trazado_65" data-name="Trazado 65" d="M485.4,22.287a3.517,3.517,0,0,1,1.4,1.2,4.211,4.211,0,0,1,.618,1.645,10.985,10.985,0,0,1,.138,2.054h-6.732a4.021,4.021,0,0,0,.661,2.282,2.184,2.184,0,0,0,1.908.862,2.439,2.439,0,0,0,1.924-.814,2.829,2.829,0,0,0,.571-1.094h1.527a3.392,3.392,0,0,1-.393,1.145,4.147,4.147,0,0,1-.759,1.031,3.577,3.577,0,0,1-1.739.94,5.115,5.115,0,0,1-1.259.138,3.844,3.844,0,0,1-2.9-1.263,5,5,0,0,1-1.18-3.541,5.426,5.426,0,0,1,1.2-3.647,3.935,3.935,0,0,1,3.148-1.4,4.143,4.143,0,0,1,1.877.46Zm.555,3.659a4.108,4.108,0,0,0-.437-1.629,2.223,2.223,0,0,0-2.113-1.129,2.337,2.337,0,0,0-1.778.787,2.982,2.982,0,0,0-.759,1.967Z" transform="translate(-290.635 -13.237)" fill="#fff"/>
      <path id="Trazado_66" data-name="Trazado 66" d="M505.487,28.277a2.255,2.255,0,0,0,.393,1.18,2.491,2.491,0,0,0,2.078.759,3.108,3.108,0,0,0,1.55-.393,1.263,1.263,0,0,0,.669-1.18,1,1,0,0,0-.535-.913,6.3,6.3,0,0,0-1.35-.445l-1.255-.315a6.083,6.083,0,0,1-1.767-.661,1.967,1.967,0,0,1-1.019-1.759,2.683,2.683,0,0,1,.956-2.14,3.856,3.856,0,0,1,2.577-.818,3.582,3.582,0,0,1,3.049,1.235,2.683,2.683,0,0,1,.567,1.692h-1.464a1.806,1.806,0,0,0-.393-.964,2.51,2.51,0,0,0-1.9-.614,2.314,2.314,0,0,0-1.365.338,1.058,1.058,0,0,0-.464.893,1.1,1.1,0,0,0,.61.972,3.647,3.647,0,0,0,1.039.393l1.043.252a8.18,8.18,0,0,1,2.286.787,2.1,2.1,0,0,1,.9,1.889,2.861,2.861,0,0,1-.948,2.148,4.043,4.043,0,0,1-2.884.9,3.9,3.9,0,0,1-2.955-.944,3.561,3.561,0,0,1-.913-2.3Z" transform="translate(-305.698 -13.094)" fill="#fff"/>
      <path id="Trazado_67" data-name="Trazado 67" d="M533.592,22.864a4.685,4.685,0,0,1,1.224,3.541,6.118,6.118,0,0,1-1.078,3.722A3.885,3.885,0,0,1,530.39,31.6a3.75,3.75,0,0,1-3-1.3,5.2,5.2,0,0,1-1.117-3.49,5.569,5.569,0,0,1,1.18-3.742,3.935,3.935,0,0,1,3.148-1.389,4.1,4.1,0,0,1,2.994,1.188Zm-.964,6.193a5.9,5.9,0,0,0,.567-2.62,4.722,4.722,0,0,0-.393-2.121,2.29,2.29,0,0,0-2.231-1.287,2.2,2.2,0,0,0-2.046,1.094,5.182,5.182,0,0,0-.637,2.644,4.5,4.5,0,0,0,.637,2.479,2.243,2.243,0,0,0,2.03.992A2.087,2.087,0,0,0,532.628,29.057Z" transform="translate(-319.205 -13.146)" fill="#fff"/>
    </g>
  </g>
</svg>
